<?xml version="1.0" encoding="UTF-8"?>
<svg id="APST_x5F_Logo" xmlns="http://www.w3.org/2000/svg" version="1.1" viewBox="0 0 914.7 291">
  <!-- Generator: Adobe Illustrator 29.8.0, SVG Export Plug-In . SVG Version: 2.1.1 Build 160)  -->
  <defs>
    <style>
      .st0 {
        fill: #3199cc;
      }

      .st1 {
        fill: #101126;
      }

      .st2 {
        fill: #00679b;
      }

      .st3 {
        fill: #b4e0f7;
      }
    </style>
  </defs>
  <path class="st1" d="M339.9,101.6h-38.9l-6.4,18.6h-20.6l35.1-97.9h22.8l35.1,97.9h-20.7l-6.4-18.6h0ZM334.6,85.9l-14.1-40.9-14.1,40.9h28.3Z"/>
  <path class="st1" d="M450.6,67.5c-2.5,4.6-6.4,8.3-11.6,11.1-5.3,2.8-11.9,4.2-20,4.2h-16.4v37.5h-19.6V22.5h36c7.6,0,14,1.3,19.3,3.9s9.3,6.2,12,10.8,4,9.8,4,15.5-1.2,10.1-3.7,14.7ZM430.2,63.2c2.6-2.5,3.9-6,3.9-10.4,0-9.5-5.3-14.3-16-14.3h-15.5v28.4h15.5c5.4,0,9.4-1.2,12-3.7h0Z"/>
  <path class="st1" d="M486.3,117.7c-5.5-2.3-9.8-5.7-13-10.1s-4.8-9.6-4.9-15.5h21c.3,4,1.7,7.2,4.3,9.5,2.6,2.3,6.1,3.5,10.6,3.5s8.2-1.1,10.8-3.3,3.9-5.1,3.9-8.6-.9-5.3-2.7-7.1c-1.8-1.9-4-3.3-6.6-4.4s-6.3-2.3-11-3.6c-6.4-1.9-11.5-3.7-15.5-5.5s-7.4-4.6-10.2-8.3c-2.9-3.7-4.3-8.6-4.3-14.8s1.5-10.8,4.3-15.1c2.9-4.3,7-7.6,12.2-9.9,5.2-2.3,11.2-3.4,17.9-3.4,10.1,0,18.3,2.5,24.6,7.4s9.8,11.7,10.4,20.5h-21.6c-.2-3.4-1.6-6.1-4.3-8.3-2.7-2.2-6.2-3.3-10.6-3.3s-6.9,1-9.2,2.9-3.4,4.8-3.4,8.5.9,4.8,2.6,6.5,3.9,3.1,6.4,4.2,6.2,2.3,10.9,3.7c6.4,1.9,11.5,3.7,15.5,5.6s7.5,4.7,10.4,8.4,4.3,8.6,4.3,14.7-1.3,10.1-4.1,14.6c-2.7,4.5-6.7,8.1-11.9,10.7-5.2,2.7-11.4,4-18.6,4s-13-1.2-18.4-3.5Z"/>
  <path class="st1" d="M622.7,22.5v15.8h-26v81.9h-19.6V38.3h-26v-15.8h71.7,0Z"/>
  <path class="st1" d="M332.7,257.4l-24.2-40.9h-18.1v40.9h-9.8v-97.9h29.4c10.9,0,19.2,2.6,24.9,7.8s8.5,12.1,8.5,20.6-2,13.1-6.1,18.1-10.1,8.2-18,9.7l25.2,41.6h-11.8ZM290.5,208.6h19.7c7.6,0,13.4-1.9,17.3-5.6,3.9-3.7,5.8-8.7,5.8-15s-1.9-11.4-5.6-14.9-9.6-5.2-17.6-5.2h-19.6v40.7h0Z"/>
  <path class="st1" d="M434.5,223h-63.4c.3,5.8,1.7,10.7,4.2,14.8,2.5,4.1,5.8,7.2,9.9,9.3,4.1,2.1,8.6,3.1,13.4,3.1s11.7-1.5,16-4.6,7.2-7.2,8.6-12.5h10.4c-1.9,7.5-5.9,13.6-12,18.3-6.1,4.7-13.8,7.1-23,7.1s-13.6-1.6-19.3-4.8c-5.7-3.2-10.1-7.8-13.4-13.7-3.2-5.9-4.8-12.9-4.8-20.8s1.6-14.9,4.8-20.9,7.6-10.6,13.3-13.7,12.2-4.8,19.5-4.8,13.6,1.6,19.1,4.8c5.5,3.2,9.7,7.4,12.6,12.8s4.4,11.3,4.4,17.9,0,5.9-.3,7.7h0ZM421.4,200.4c-2.4-4-5.6-7.1-9.7-9.1-4.1-2.1-8.6-3.1-13.4-3.1-7.3,0-13.5,2.3-18.6,7s-8,11.2-8.5,19.7h53.8c0-5.7-1-10.6-3.4-14.6Z"/>
  <path class="st1" d="M460.3,252.5c-5.5-4.1-8.7-9.6-9.3-16.6h10.1c.5,4.3,2.5,7.8,6.1,10.4s8.4,4,14.5,4,9.5-1.3,12.5-3.8,4.5-5.6,4.5-9.4-.8-4.8-2.5-6.4c-1.7-1.7-3.8-3-6.4-4-2.6-1-6-2-10.4-3.1-5.7-1.5-10.3-3-13.9-4.5-3.5-1.5-6.6-3.7-9-6.6-2.5-2.9-3.7-6.9-3.7-11.8s1.1-7.2,3.4-10.4,5.4-5.7,9.5-7.6,8.8-2.8,14-2.8c8.2,0,14.8,2.1,19.9,6.2s7.8,9.9,8.1,17.1h-9.8c-.3-4.5-2-8.1-5.2-10.9s-7.6-4.1-13.2-4.1-9,1.2-12,3.5c-3.1,2.3-4.6,5.2-4.6,8.7s.9,5.4,2.7,7.4,4.1,3.4,6.8,4.5c2.7,1.1,6.4,2.3,10.9,3.6,5.5,1.5,9.9,2.9,13.2,4.3s6.1,3.4,8.4,6.2,3.5,6.3,3.6,10.8c0,4.1-1.1,7.8-3.4,11s-5.4,5.8-9.4,7.6c-4,1.9-8.6,2.8-13.9,2.8-8.8,0-15.9-2-21.5-6.1h0Z"/>
  <path class="st1" d="M595.8,223h-63.4c.3,5.8,1.7,10.7,4.2,14.8s5.8,7.2,9.9,9.3c4.1,2.1,8.6,3.1,13.4,3.1s11.7-1.5,16-4.6,7.2-7.2,8.6-12.5h10.4c-1.9,7.5-5.9,13.6-12,18.3s-13.8,7.1-23,7.1-13.6-1.6-19.3-4.8c-5.7-3.2-10.2-7.8-13.4-13.7-3.2-5.9-4.8-12.9-4.8-20.8s1.6-14.9,4.8-20.9,7.6-10.6,13.3-13.7,12.2-4.8,19.5-4.8,13.7,1.6,19.1,4.8c5.5,3.2,9.7,7.4,12.6,12.8s4.4,11.3,4.4,17.9,0,5.9-.3,7.7h0ZM582.7,200.4c-2.4-4-5.6-7.1-9.7-9.1s-8.6-3.1-13.4-3.1c-7.3,0-13.5,2.3-18.6,7s-8,11.2-8.5,19.7h53.8c0-5.7-1-10.6-3.4-14.6h0Z"/>
  <path class="st1" d="M617,198.4c3.1-5.9,7.5-10.5,13-13.7,5.5-3.2,11.8-4.8,18.8-4.8s13.6,1.7,18.8,5,9.1,7.6,11.4,12.9v-16.8h9.8v76.4h-9.8v-16.9c-2.4,5.2-6.3,9.5-11.5,12.9-5.3,3.4-11.5,5.1-18.8,5.1s-13.1-1.6-18.7-4.9c-5.5-3.3-9.9-7.9-13-13.9s-4.7-12.9-4.7-20.7,1.6-14.7,4.7-20.6h0ZM675.3,203c-2.5-4.7-6-8.3-10.3-10.8s-9.1-3.8-14.3-3.8-10.3,1.2-14.6,3.6-7.7,5.9-10.2,10.6c-2.5,4.6-3.7,10.1-3.7,16.4s1.2,11.7,3.7,16.4c2.5,4.7,5.9,8.3,10.2,10.8,4.3,2.5,9.2,3.7,14.6,3.7s10-1.3,14.3-3.8c4.3-2.5,7.8-6.1,10.3-10.8,2.5-4.7,3.8-10.1,3.8-16.2s-1.3-11.6-3.8-16.2Z"/>
  <path class="st1" d="M731,183.5c4.4-2.6,9.9-3.9,16.3-3.9v10.2h-2.7c-7.1,0-12.8,1.9-17.1,5.7-4.3,3.8-6.4,10.2-6.4,19.2v42.7h-9.8v-76.4h9.8v13.6c2.2-4.8,5.4-8.4,9.9-11.1h0Z"/>
  <path class="st1" d="M759.4,198.4c3.2-5.9,7.6-10.5,13.2-13.7s12-4.8,19.2-4.8,17.2,2.3,23.3,7,10.1,11,11.8,19h-10.5c-1.3-5.5-4.1-9.8-8.5-12.9-4.3-3.1-9.7-4.7-16.2-4.7s-9.8,1.2-13.9,3.5-7.3,5.8-9.7,10.4c-2.4,4.6-3.6,10.3-3.6,17s1.2,12.4,3.6,17.1,5.6,8.2,9.7,10.5,8.7,3.5,13.9,3.5,11.8-1.6,16.2-4.7c4.3-3.1,7.2-7.5,8.5-13.1h10.5c-1.8,7.8-5.7,14.1-11.9,18.9-6.2,4.8-13.9,7.1-23.2,7.1s-13.6-1.6-19.2-4.8c-5.6-3.2-10-7.8-13.2-13.7-3.2-5.9-4.8-12.9-4.8-20.8s1.6-14.9,4.8-20.8Z"/>
  <path class="st1" d="M899.8,183.2c4.6,2.4,8.3,6.1,10.9,11.1s4,11.1,4,18.3v44.8h-9.7v-43.7c0-8.3-2.1-14.6-6.2-19-4.2-4.4-9.8-6.6-17-6.6s-13.2,2.3-17.6,7-6.6,11.5-6.6,20.6v41.7h-9.8v-103.6h9.8v40.2c2.4-4.6,6-8.1,10.7-10.6s10-3.8,15.9-3.8,11,1.2,15.6,3.6h0Z"/>
  <rect class="st2" y="281.2" width="178.1" height="9.8"/>
  <rect class="st2" x="0" y="88.9" width="38" height="170"/>
  <rect class="st0" x="70.1" width="38" height="258.9"/>
  <rect class="st3" x="140.1" y="125.7" width="38" height="133.2"/>
</svg>